<svg xmlns="http://www.w3.org/2000/svg" viewBox="0 0 64 64" fill="none">
  <rect width="64" height="64" rx="16" fill="#0B1020"/>
  <path
    d="M20 21.5C20 18.462 22.462 16 25.5 16C27.676 16 29.558 17.264 30.451 19.098C31.154 17.287 32.914 16 35 16C37.761 16 40 18.239 40 21V23.021C42.883 23.278 45.143 25.699 45.143 28.65C45.143 30.848 43.888 32.753 42.057 33.68C43.278 34.698 44.056 36.232 44.056 37.947C44.056 41.014 41.57 43.5 38.503 43.5H35.889V47.5H31.889V43.5H28.111V47.5H24.111V43.5H21.497C18.43 43.5 15.944 41.014 15.944 37.947C15.944 36.232 16.722 34.698 17.943 33.68C16.112 32.753 14.857 30.848 14.857 28.65C14.857 25.699 17.117 23.278 20 23.021V21.5Z"
    stroke="#7C8BFF"
    stroke-width="4"
    stroke-linecap="round"
    stroke-linejoin="round"
  />
  <path
    d="M26 24V35.5M32 21V39.5M38 24V35.5"
    stroke="#D6DBFF"
    stroke-width="4"
    stroke-linecap="round"
  />
</svg>
